<?xml version="1.0" encoding="UTF-8" standalone="no"?>
<!-- Created with Inkscape (http://www.inkscape.org/) -->

<svg
   xmlns:dc="http://purl.org/dc/elements/1.1/"
   xmlns:cc="http://creativecommons.org/ns#"
   xmlns:rdf="http://www.w3.org/1999/02/22-rdf-syntax-ns#"
   xmlns:svg="http://www.w3.org/2000/svg"
   xmlns="http://www.w3.org/2000/svg"
   xmlns:sodipodi="http://sodipodi.sourceforge.net/DTD/sodipodi-0.dtd"
   xmlns:inkscape="http://www.inkscape.org/namespaces/inkscape"
   width="37.23526mm"
   height="39.680931mm"
   viewBox="0 0 37.23526 39.680931"
   version="1.1"
   id="svg33"
   inkscape:version="0.92.2 (5c3e80d, 2017-08-06)"
   sodipodi:docname="anchor.svg">
  <defs
     id="defs27" />
  <sodipodi:namedview
     id="base"
     pagecolor="#ffffff"
     bordercolor="#666666"
     borderopacity="1.0"
     inkscape:pageopacity="0.0"
     inkscape:pageshadow="2"
     inkscape:zoom="4"
     inkscape:cx="67.021739"
     inkscape:cy="62.500628"
     inkscape:document-units="mm"
     inkscape:current-layer="layer1"
     showgrid="false"
     inkscape:window-width="1600"
     inkscape:window-height="837"
     inkscape:window-x="-8"
     inkscape:window-y="-8"
     inkscape:window-maximized="1" />
  <metadata
     id="metadata30">
    <rdf:RDF>
      <cc:Work
         rdf:about="">
        <dc:format>image/svg+xml</dc:format>
        <dc:type
           rdf:resource="http://purl.org/dc/dcmitype/StillImage" />
        <dc:title></dc:title>
      </cc:Work>
    </rdf:RDF>
  </metadata>
  <g
     inkscape:label="Layer 1"
     inkscape:groupmode="layer"
     id="layer1"
     transform="translate(-66.049035,-104.80239)">
    <path
       style="fill:#009966;fill-opacity:1;stroke:none;stroke-width:0.06644987;stroke-miterlimit:4;stroke-dasharray:none;stroke-opacity:1"
       d="m 83.976071,144.18907 c -0.87213,-0.46637 -2.13537,-0.83506 -5.404146,-1.57728 -3.947953,-0.89644 -4.824208,-1.28836 -6.413354,-2.86853 -0.61417,-0.61069 -1.746666,-2.02228 -2.556167,-3.1861 -0.799393,-1.14929 -1.616266,-2.24218 -1.815273,-2.42866 -0.330423,-0.30962 -0.407409,-0.32401 -0.886861,-0.16577 -0.288765,0.0953 -0.562951,0.13534 -0.609302,0.0891 -0.230385,-0.23039 -0.344812,-3.97957 -0.121464,-3.97957 0.01674,0 0.479548,0.15342 1.028443,0.34092 1.383404,0.47257 2.943486,1.19781 2.943486,1.36833 0,0.0782 -0.153262,0.32541 -0.340584,0.54945 l -0.340584,0.40737 1.385388,1.24051 c 3.19471,2.86064 4.257758,3.45524 6.358269,3.55639 2.095325,0.10087 3.591208,-0.4146 4.109078,-1.41606 0.730881,-1.41334 1.22292,-8.15868 1.21378,-16.63904 -0.005,-4.29789 -0.0851,-5.15492 -0.514139,-5.47643 -0.47672,-0.35722 -2.08412,-0.62095 -4.377442,-0.71821 -1.228545,-0.0521 -2.347205,-0.12691 -2.485913,-0.16622 -0.214,-0.0607 -0.252191,-0.25137 -0.252191,-1.2592 0,-1.58894 0.08703,-1.69002 1.296992,-1.5064 2.098245,0.3184 5.671594,-0.22448 6.302054,-0.95744 0.297299,-0.34563 0.32705,-0.525 0.32705,-1.97182 -0.06255,-0.92411 -0.138342,-1.45327 0.489969,-2.08159 0.872221,-0.87221 2.508551,-0.65445 3.05738,0.40686 0.186881,0.3614 0.219501,0.6953 0.152611,1.56267 -0.106111,1.37594 0.0729,2.0845 0.594049,2.35044 1.152181,0.58803 4.326981,0.95197 6.007111,0.68862 0.553259,-0.0868 1.05878,-0.10485 1.123359,-0.0403 0.185219,0.18523 0.290402,2.06895 0.13778,2.46782 -0.137129,0.35846 -0.151559,0.36108 -2.859749,0.51769 -2.98064,0.17238 -3.80404,0.33517 -4.323701,0.85484 l -0.343709,0.3437 2.91e-4,5.37468 c 2.91e-4,5.42701 0.16585,10.28245 0.43653,12.79639 0.44105,4.09603 1.1186,4.82772 4.4705,4.82772 1.627931,0 1.68847,-0.0112 2.738101,-0.53074 0.995968,-0.49247 2.695879,-1.80053 4.60407,-3.54279 l 0.79262,-0.72367 -0.32426,-0.3488 c -0.178331,-0.19183 -0.324249,-0.42458 -0.324249,-0.51721 0,-0.32354 3.609106,-1.86065 3.919036,-1.66911 0.13876,0.0858 0.15446,2.32842 0.0231,3.28746 -0.1,0.72921 -0.0889,0.72494 -1.09983,0.42427 -0.34877,-0.10373 -0.76308,0.36848 -2.466614,2.81123 -1.630371,2.33782 -2.681441,3.49097 -3.88157,4.25853 -1.085162,0.69401 -1.864223,0.95411 -4.966902,1.65822 -3.412851,0.77453 -4.591411,1.11217 -5.3439,1.53099 -0.34685,0.19305 -0.68453,0.35099 -0.68453,0.35099 l -0.26488,-4.6e-4 z m 1.524176,-36.40239 c 0.62606,-0.50949 0.537249,-1.61142 -0.059,-2.07062 -0.706308,-0.49586 -2.109439,-0.12086 -2.07289,1.16444 0.08585,1.34123 1.489552,1.37718 2.131887,0.90618 z"
       id="path5351"
       inkscape:connector-curvature="0"
       sodipodi:nodetypes="cscscccscscccccccccscccccscccccccscsccccsccccccsccccccc" />
  </g>
</svg>
