<?xml version="1.0" encoding="UTF-8" standalone="no"?>
<!DOCTYPE svg PUBLIC "-//W3C//DTD SVG 1.1//EN" "http://www.w3.org/Graphics/SVG/1.1/DTD/svg11.dtd">
<svg version="1.1" xmlns="http://www.w3.org/2000/svg" xmlns:xlink="http://www.w3.org/1999/xlink" preserveAspectRatio="xMidYMid meet" viewBox="0 0 640 640" width="640" height="640"><defs><path d="M626.63 321.36C636.07 306.98 639.84 294.05 637.96 282.58L3.84 368.86L581.35 368.87C602.1 351.58 617.2 335.75 626.63 321.36Z" id="bt8yzkPwG"></path><path d="M100.82 336.68L478.03 265.15C483.59 267.83 489 271.54 494.26 276.3C499.51 281.06 503.7 286.53 506.8 292.7L23.71 362.68L100.82 336.68Z" id="a2P9CuAkIz"></path><path d="M119.33 329C318.6 289.76 443.14 265.23 492.95 255.42C493.14 255.39 493.2 255.15 493.04 255.03C489.18 252.12 489 251.99 487.89 251.16C478.92 244.41 467.37 242.07 456.48 244.79C411.53 256.02 299.14 284.09 119.33 329Z" id="dmtXxftnL"></path></defs><g><g><g><use xlink:href="#bt8yzkPwG" opacity="1" fill="#202020" fill-opacity="1"></use></g><g><use xlink:href="#a2P9CuAkIz" opacity="1" fill="#15935c" fill-opacity="1"></use></g><g><use xlink:href="#dmtXxftnL" opacity="1" fill="#202020" fill-opacity="1"></use></g></g></g></svg>